<?xml version="1.0" standalone="no"?>
<!DOCTYPE svg PUBLIC "-//W3C//DTD SVG 20010904//EN"
 "http://www.w3.org/TR/2001/REC-SVG-20010904/DTD/svg10.dtd">
<svg version="1.0" xmlns="http://www.w3.org/2000/svg"
 width="1300.000000pt" height="1300.000000pt" viewBox="0 0 1300.000000 1300.000000"
 preserveAspectRatio="xMidYMid meet">
<metadata>
Created by potrace 1.11, written by Peter Selinger 2001-2013
</metadata>
<g transform="translate(0.000000,1300.000000) scale(0.100000,-0.100000)"
fill="#000000" stroke="none">
<path d="M3171 11373 c-30 -15 -78 -50 -107 -78 -28 -27 -74 -71 -100 -96 -59
-55 -211 -219 -253 -273 -17 -21 -55 -65 -83 -96 -29 -32 -66 -75 -83 -95 -16
-20 -34 -42 -40 -49 -5 -6 -27 -32 -47 -57 -20 -25 -62 -72 -92 -105 -31 -32
-56 -63 -56 -69 0 -5 -32 -46 -70 -90 -38 -44 -93 -115 -122 -157 -29 -42 -56
-74 -60 -72 -5 3 -8 2 -8 -3 0 -4 -11 -21 -25 -37 -14 -16 -25 -32 -25 -35 0
-3 -13 -20 -30 -37 -16 -18 -27 -34 -25 -36 2 -2 -9 -19 -25 -38 -17 -19 -30
-39 -30 -43 0 -5 -5 -5 -12 -1 -6 4 -8 3 -5 -2 3 -5 -19 -41 -49 -79 -30 -39
-75 -101 -100 -138 -25 -37 -60 -83 -77 -102 -40 -42 -53 -60 -76 -107 -10
-21 -21 -35 -24 -31 -4 3 -7 0 -7 -7 0 -8 -11 -25 -24 -39 -33 -37 -158 -221
-149 -221 5 0 3 -4 -3 -8 -11 -7 -100 -135 -96 -139 1 -2 -10 -14 -24 -28 -14
-14 -34 -44 -44 -68 -25 -56 -129 -203 -141 -199 -6 1 -17 -14 -25 -34 -8 -20
-20 -41 -25 -48 -18 -21 -89 -145 -89 -155 0 -6 -4 -11 -9 -11 -5 0 -24 -35
-41 -77 -18 -43 -38 -92 -46 -108 -12 -25 -14 -94 -12 -360 1 -182 -1 -364 -5
-405 -4 -41 -9 -106 -12 -145 -6 -79 -11 -135 -25 -250 -5 -44 -12 -109 -15
-145 -3 -36 -10 -99 -15 -140 -6 -41 -12 -97 -14 -125 -9 -115 -17 -203 -22
-250 -26 -256 -35 -448 -36 -767 0 -258 9 -368 33 -368 5 0 9 -6 9 -14 0 -32
247 -536 267 -543 7 -3 11 -8 8 -13 -2 -4 5 -16 15 -28 11 -12 20 -28 20 -36
0 -9 16 -40 35 -70 19 -30 35 -59 35 -64 0 -6 7 -12 15 -16 8 -3 14 -9 14 -13
-3 -10 9 -43 22 -63 5 -8 15 -27 22 -43 7 -15 15 -25 18 -23 3 3 5 -3 6 -13 1
-16 114 -197 144 -231 8 -8 25 -37 39 -63 14 -27 33 -57 43 -68 10 -10 15 -19
12 -19 -6 0 54 -81 92 -125 10 -12 29 -42 43 -68 13 -26 31 -47 39 -47 8 0 12
-3 8 -6 -5 -5 96 -150 115 -164 4 -3 20 -24 35 -47 35 -51 78 -105 124 -157
20 -23 50 -62 67 -88 18 -26 59 -74 91 -107 32 -34 56 -63 53 -66 -3 -3 0 -5
6 -5 6 0 13 -9 17 -19 3 -11 37 -51 75 -90 39 -39 70 -75 70 -81 0 -5 7 -10
15 -10 8 0 15 -7 15 -15 0 -8 5 -15 10 -15 6 0 10 -5 10 -11 0 -5 30 -40 68
-77 37 -37 85 -88 106 -114 22 -27 43 -45 50 -41 6 3 8 3 4 -1 -7 -8 27 -47
39 -45 4 0 10 -9 15 -20 4 -12 15 -21 24 -21 16 0 94 -76 94 -92 0 -5 4 -8 10
-8 5 0 49 -40 98 -90 49 -49 94 -90 100 -90 7 0 12 -6 12 -14 0 -7 8 -20 18
-27 16 -13 16 -13 2 6 -14 18 -14 19 2 7 10 -8 20 -22 23 -33 4 -11 10 -17 14
-15 4 3 23 -13 42 -36 19 -22 40 -45 47 -52 8 -6 25 -22 40 -36 14 -14 22 -18
17 -10 -4 8 4 2 19 -14 14 -16 40 -39 58 -52 17 -13 28 -24 23 -24 -5 0 9 -16
31 -35 21 -19 42 -35 45 -35 4 0 40 -32 80 -70 98 -93 109 -102 143 -124 16
-10 46 -35 66 -55 70 -69 124 -113 147 -122 13 -5 23 -13 23 -19 0 -6 4 -9 9
-5 5 3 12 -4 16 -15 3 -11 9 -20 13 -20 4 0 19 -10 34 -23 14 -12 41 -33 58
-47 18 -14 38 -31 45 -37 8 -7 17 -13 21 -13 4 0 14 -7 23 -15 9 -8 28 -26 44
-40 15 -14 27 -23 27 -19 0 4 9 -3 20 -16 11 -13 20 -20 20 -17 0 8 46 -30 73
-61 12 -12 27 -22 34 -22 7 0 22 -9 33 -20 11 -11 20 -18 20 -15 0 5 31 -19
62 -47 10 -10 18 -15 18 -12 0 4 7 1 15 -6 8 -7 12 -17 8 -24 -3 -6 -3 -8 2
-4 4 4 27 -6 51 -22 23 -17 46 -30 51 -30 13 0 94 -76 87 -82 -2 -3 2 -8 11
-12 11 -4 14 -2 9 6 -4 6 8 0 27 -14 19 -14 50 -35 70 -46 36 -20 37 -20 32
-1 -3 10 -9 16 -14 13 -5 -3 -12 2 -15 10 -3 9 -13 16 -20 16 -8 0 -17 7 -20
15 -4 8 -13 15 -21 15 -8 0 -11 5 -7 13 4 6 4 9 -1 5 -10 -10 -84 42 -147 103
-28 27 -54 49 -59 49 -5 0 -19 15 -31 34 -12 18 -38 42 -57 52 -43 23 -46 25
-150 124 -46 44 -88 80 -94 80 -5 0 -32 22 -60 50 -108 103 -138 130 -146 130
-11 0 -40 27 -73 68 -15 18 -30 34 -33 35 -12 4 -97 81 -177 159 -43 42 -82
78 -86 80 -4 2 -6 6 -4 10 1 5 -2 8 -8 8 -5 0 -66 55 -135 123 -69 68 -128
121 -130 118 -3 -2 -5 0 -5 6 0 5 -76 88 -170 184 -222 227 -228 234 -210 224
8 -5 -4 9 -26 31 -23 21 -57 64 -76 94 -20 30 -72 94 -117 142 -44 47 -81 89
-81 92 0 7 -24 35 -122 144 -38 42 -68 80 -68 86 0 7 -20 33 -45 59 -25 27
-45 50 -45 52 0 2 -10 15 -22 28 -45 47 -78 91 -78 103 0 6 -7 17 -14 24 -19
15 -140 175 -201 265 -26 39 -60 84 -76 101 -16 17 -26 34 -22 39 5 4 3 5 -3
2 -12 -7 -34 13 -38 35 -7 33 -30 77 -66 123 -21 27 -55 77 -76 110 -20 33
-40 62 -43 65 -4 3 -18 28 -33 57 -14 28 -51 90 -82 137 -31 47 -64 102 -72
123 -9 21 -28 53 -42 72 -14 19 -20 31 -14 27 12 -7 0 13 -70 123 -21 32 -38
64 -38 70 0 6 -4 11 -9 11 -5 0 -13 9 -16 20 -4 11 -10 18 -14 16 -9 -6 -34
61 -27 73 3 5 -1 11 -9 15 -8 3 -15 17 -15 31 0 23 -14 54 -92 208 -17 34 -31
66 -30 70 2 5 -12 41 -29 80 -17 40 -38 87 -47 106 -11 26 -14 79 -15 230 0
256 21 713 38 811 2 14 7 61 10 105 4 44 8 98 11 120 2 22 6 65 8 95 3 30 7
75 10 100 3 25 8 101 11 170 3 69 7 136 10 150 2 14 9 86 15 160 6 74 13 153
15 175 8 73 16 257 20 470 4 216 5 231 18 253 5 7 10 23 13 36 2 13 19 50 37
83 36 63 70 143 62 143 -3 0 3 10 15 22 11 12 20 26 20 30 0 5 9 19 20 31 11
11 23 39 27 60 3 21 16 53 29 72 12 18 20 35 18 38 -3 3 5 13 18 23 13 11 25
28 26 39 4 21 41 78 54 83 4 2 8 9 8 14 0 6 17 34 39 62 21 29 52 76 69 106
17 30 44 69 61 87 16 17 27 34 25 36 -2 2 5 12 16 22 11 10 20 24 20 32 0 7 5
13 12 13 6 0 9 3 5 6 -3 3 5 18 19 33 14 14 35 43 47 65 40 71 47 81 47 72 0
-6 13 11 30 37 16 26 34 47 40 47 5 0 10 6 10 14 0 7 7 19 16 27 8 7 24 29 34
49 11 21 41 63 69 96 27 32 48 61 45 65 -2 4 2 9 9 12 8 3 31 30 51 61 20 31
41 56 47 56 5 0 8 3 7 8 -2 4 26 45 62 91 36 46 72 93 80 105 23 32 89 116
148 185 28 34 52 69 52 77 0 8 5 12 10 9 6 -3 10 0 10 8 0 8 18 34 40 58 22
24 57 66 78 92 20 27 55 69 77 95 22 26 50 60 62 75 13 17 27 26 34 21 8 -4 9
-3 5 5 -4 6 4 26 19 44 54 65 278 298 296 308 19 10 54 -5 126 -54 37 -25 83
-107 83 -147 0 -28 -49 -182 -71 -221 -7 -13 -14 -31 -16 -40 -1 -8 -9 -29
-18 -45 -8 -16 -15 -35 -15 -42 0 -7 -4 -20 -9 -30 -5 -9 -24 -53 -41 -97 -18
-44 -47 -111 -65 -150 -50 -108 -62 -136 -79 -187 -9 -26 -21 -58 -27 -70 -25
-47 -29 -58 -29 -72 0 -8 -4 -16 -8 -18 -10 -4 -122 -250 -122 -268 0 -10 -56
-136 -146 -327 -19 -39 -34 -76 -34 -83 0 -12 -97 -237 -110 -255 -6 -9 -42
-98 -123 -305 -12 -30 -24 -57 -27 -60 -3 -3 -25 -54 -50 -115 -24 -60 -49
-113 -54 -117 -6 -4 -7 -8 -2 -8 5 0 3 -6 -3 -13 -6 -8 -9 -16 -6 -19 5 -5
-14 -64 -39 -121 -15 -34 -25 -64 -26 -72 0 -3 -7 -19 -15 -35 -8 -16 -15 -32
-15 -35 0 -3 -6 -18 -14 -33 -8 -15 -17 -44 -21 -65 -4 -20 -12 -37 -18 -37
-6 0 -8 -3 -4 -6 3 -3 -1 -25 -10 -47 -17 -49 -43 -189 -49 -264 -2 -34 -15
-72 -38 -115 -37 -68 -77 -189 -83 -253 -2 -22 -8 -71 -12 -110 -10 -76 -7
-340 4 -445 18 -175 78 -510 140 -790 48 -212 189 -485 328 -637 29 -31 59
-65 67 -77 16 -24 13 -20 110 -124 41 -43 95 -107 120 -140 25 -34 48 -61 52
-62 8 0 67 -88 96 -143 11 -21 23 -38 27 -37 9 1 140 -217 150 -250 6 -22 27
-63 73 -145 25 -46 99 -213 106 -240 4 -16 36 -89 71 -162 36 -73 64 -136 64
-140 0 -3 3 -9 8 -12 10 -6 43 -74 43 -87 0 -10 115 -217 155 -279 18 -27 36
-61 40 -73 7 -25 157 -241 208 -302 54 -63 139 -150 147 -150 5 0 2 19 -6 43
-9 23 -17 47 -18 52 -5 18 -26 70 -35 86 -5 8 -21 47 -36 85 -15 38 -35 85
-45 106 -10 20 -24 56 -30 80 -12 43 -67 178 -120 293 -15 33 -35 83 -45 110
-28 79 -88 229 -96 240 -4 6 -21 46 -39 90 -17 44 -37 89 -44 100 -7 11 -21
45 -30 76 -16 59 -220 474 -243 497 -7 8 -18 23 -24 35 -29 56 -164 249 -211
302 -30 33 -66 78 -82 99 -16 22 -61 72 -99 112 -38 40 -77 86 -87 101 -9 15
-35 46 -57 69 -68 70 -130 174 -206 344 -38 84 -88 280 -113 440 -9 58 -25
155 -35 215 -48 273 -71 600 -49 715 5 25 11 64 13 85 5 38 8 52 24 93 3 9 7
23 9 31 6 29 76 154 99 175 45 41 70 62 78 63 5 1 23 13 41 26 101 77 312 59
390 -34 14 -16 27 -29 30 -29 16 0 126 -131 148 -178 16 -31 28 -53 28 -47 0
5 10 -8 21 -30 12 -22 26 -43 31 -46 5 -3 10 -10 10 -15 0 -5 20 -48 43 -96
24 -47 41 -88 39 -91 -2 -2 2 -17 11 -33 8 -16 15 -34 15 -40 0 -6 8 -31 19
-55 17 -42 32 -78 36 -89 1 -3 4 -12 7 -20 19 -50 67 -214 72 -245 1 -5 4 -14
8 -20 3 -5 11 -46 18 -90 23 -156 78 -295 195 -502 13 -24 21 -43 17 -43 -4 0
-2 -4 3 -8 6 -4 22 -23 35 -42 13 -19 36 -47 52 -62 15 -15 28 -32 28 -37 0
-6 4 -11 8 -11 5 0 18 -17 30 -37 21 -36 67 -93 75 -93 10 0 107 -100 107
-110 0 -6 5 -8 10 -5 6 3 10 0 10 -8 0 -8 15 -28 34 -43 18 -16 56 -49 84 -73
30 -24 49 -48 45 -55 -3 -6 -3 -8 1 -5 4 4 24 -11 45 -32 21 -22 41 -39 44
-39 16 0 137 -116 137 -131 0 -4 9 -11 21 -14 11 -4 18 -9 15 -13 -3 -3 7 -13
23 -23 48 -29 81 -61 74 -73 -3 -6 -3 -8 2 -4 12 11 45 -10 45 -28 0 -9 11
-25 25 -36 14 -11 23 -24 19 -29 -3 -5 0 -8 8 -7 7 2 12 -3 10 -10 -1 -8 2
-11 7 -8 10 6 53 -32 122 -109 53 -59 85 -82 126 -91 22 -4 63 -41 55 -49 -4
-5 -2 -5 5 -1 7 3 24 -6 39 -21 15 -16 21 -19 13 -8 -14 19 -14 19 12 0 15
-11 25 -22 24 -25 -2 -3 5 -7 16 -7 19 -2 81 -40 87 -55 2 -4 8 -8 14 -8 12 0
73 -49 148 -120 32 -30 85 -80 119 -110 33 -30 61 -60 61 -66 0 -6 24 -33 53
-61 62 -61 130 -139 138 -162 4 -9 15 -23 24 -31 24 -20 143 -182 189 -260 22
-36 57 -88 78 -116 21 -28 38 -55 38 -61 0 -6 6 -16 14 -22 8 -7 17 -24 21
-38 3 -14 18 -45 34 -67 15 -23 42 -70 60 -106 19 -36 39 -72 46 -80 6 -8 24
-44 39 -80 15 -36 43 -96 61 -135 29 -59 53 -115 60 -135 1 -3 15 -34 32 -71
17 -36 34 -76 38 -90 12 -42 75 -213 92 -249 10 -22 18 -30 20 -20 3 8 9 24
14 35 5 11 22 58 39 105 17 47 33 92 37 100 3 8 7 21 9 28 1 8 6 21 10 30 4 9
8 19 9 22 0 3 11 28 24 55 13 28 25 55 26 61 2 6 23 52 48 102 25 50 51 108
57 129 7 21 32 72 56 113 84 148 105 186 140 254 20 39 53 93 73 120 21 28 55
80 77 116 45 74 173 248 197 269 10 7 17 18 17 24 0 12 101 129 153 175 20 19
37 39 38 46 0 6 27 36 60 66 33 30 86 79 117 109 67 63 155 131 169 131 6 0
13 6 16 14 7 18 158 121 236 161 43 22 97 68 200 173 78 78 146 140 151 137 6
-3 7 0 5 8 -4 8 12 26 37 44 24 17 85 71 135 119 148 142 265 250 310 286 23
18 42 38 42 43 1 6 38 47 82 90 45 44 92 97 106 118 13 21 30 40 38 44 8 3 15
11 15 18 0 6 10 20 22 31 24 22 108 147 108 163 0 5 7 17 15 25 9 9 43 71 75
139 57 119 82 197 114 357 26 130 94 363 130 443 8 18 22 57 31 87 22 70 98
231 134 284 16 23 40 64 54 91 14 28 52 77 85 110 159 159 178 169 317 169 94
0 103 -2 163 -34 275 -147 343 -499 228 -1175 -13 -77 -31 -187 -41 -245 -25
-156 -44 -245 -76 -343 -30 -92 -132 -309 -158 -337 -9 -9 -21 -25 -28 -36 -6
-10 -16 -18 -23 -16 -7 1 -8 -3 -4 -9 4 -7 -3 -21 -18 -33 -14 -12 -44 -47
-67 -79 -24 -32 -63 -77 -87 -100 -25 -23 -70 -74 -100 -114 -30 -40 -62 -78
-72 -85 -27 -21 -93 -114 -224 -318 -67 -105 -231 -429 -259 -513 -11 -34 -29
-80 -39 -102 -10 -22 -28 -62 -40 -90 -12 -27 -32 -72 -44 -100 -25 -54 -61
-145 -95 -240 -13 -33 -27 -69 -33 -80 -23 -41 -101 -233 -123 -302 -13 -39
-30 -84 -38 -100 -8 -15 -22 -46 -31 -68 -8 -22 -34 -84 -57 -139 -47 -113
-61 -156 -49 -156 11 0 157 156 186 199 39 59 58 85 71 99 7 7 13 17 13 22 0
5 8 16 18 25 16 16 55 82 166 282 27 48 54 95 61 103 6 8 18 31 25 50 7 19 50
112 96 205 45 94 89 190 98 215 14 44 86 206 108 245 26 44 78 150 78 158 0
13 121 209 152 247 15 19 28 40 28 47 0 7 5 13 12 13 6 0 9 3 5 6 -8 8 31 60
110 149 35 38 63 73 63 78 0 5 36 46 80 91 44 45 87 93 97 106 9 14 37 48 62
75 114 124 239 336 294 495 36 106 111 454 151 705 41 250 54 610 27 750 -22
116 -51 206 -92 283 -23 44 -39 87 -39 108 0 90 -47 288 -101 424 -72 184
-108 279 -113 303 -4 15 -17 51 -30 80 -14 29 -34 77 -46 107 -12 30 -35 84
-52 120 -17 36 -31 70 -33 75 -8 35 -61 165 -107 262 -26 57 -48 106 -48 109
0 3 -10 27 -23 53 -13 25 -27 60 -31 76 -6 27 -37 96 -142 323 -19 40 -34 78
-34 84 0 11 -44 110 -125 283 -24 50 -50 110 -58 135 -16 48 -43 111 -84 200
-36 79 -94 220 -138 335 -20 55 -41 109 -46 120 -23 55 -51 154 -51 181 0 77
69 163 165 206 l38 18 112 -114 c62 -62 121 -125 132 -139 11 -14 26 -26 34
-27 8 0 11 -3 8 -6 -8 -8 49 -79 152 -189 10 -11 27 -33 37 -50 21 -34 54 -73
105 -124 19 -20 48 -58 64 -86 30 -51 42 -66 105 -136 49 -54 53 -59 80 -104
13 -22 30 -44 37 -48 7 -4 13 -15 13 -22 0 -8 4 -15 9 -15 8 0 77 -87 131
-164 35 -51 107 -144 140 -182 19 -23 42 -54 50 -70 14 -27 67 -103 81 -114
12 -10 109 -153 109 -161 0 -5 10 -19 23 -32 29 -30 123 -164 165 -236 18 -31
38 -57 43 -59 5 -2 9 -9 9 -16 0 -7 10 -24 23 -38 24 -26 85 -118 105 -158 7
-14 41 -70 77 -125 76 -118 197 -358 223 -441 10 -33 17 -72 15 -89 -5 -50 -4
-386 1 -450 2 -33 8 -107 11 -165 8 -124 11 -163 20 -250 3 -36 8 -85 10 -110
2 -25 7 -88 10 -140 8 -135 15 -230 20 -265 2 -16 7 -64 10 -105 3 -41 12
-145 20 -230 30 -329 38 -508 38 -815 l-1 -210 -41 -95 c-22 -52 -41 -101 -41
-108 0 -7 -20 -53 -45 -102 -24 -50 -41 -90 -37 -90 4 0 2 -4 -3 -8 -6 -4 -15
-18 -21 -32 -10 -25 -49 -108 -97 -210 -15 -30 -38 -73 -52 -95 -14 -22 -30
-52 -36 -67 -6 -16 -14 -28 -18 -28 -4 0 -13 -16 -21 -35 -7 -19 -19 -36 -27
-39 -7 -3 -13 -13 -13 -23 0 -20 -57 -122 -130 -233 -27 -41 -49 -82 -49 -90
-1 -9 -10 -22 -21 -30 -11 -8 -20 -18 -20 -23 0 -10 -61 -104 -108 -167 -19
-24 -38 -55 -43 -69 -5 -13 -43 -69 -84 -125 -41 -56 -114 -155 -162 -221 -48
-66 -96 -129 -105 -140 -42 -47 -46 -54 -41 -58 3 -3 -4 -12 -16 -19 -12 -7
-21 -17 -21 -23 0 -5 -23 -35 -51 -65 -28 -30 -63 -73 -77 -95 -36 -56 -103
-125 -115 -118 -6 3 -7 1 -4 -5 4 -5 -9 -29 -28 -52 -19 -23 -35 -45 -35 -48
0 -4 -43 -52 -95 -107 -52 -55 -95 -103 -95 -108 0 -4 -21 -29 -47 -55 -27
-27 -106 -111 -178 -188 -145 -156 -469 -479 -625 -624 -56 -52 -143 -134
-193 -181 -51 -48 -96 -88 -102 -90 -5 -2 -19 -13 -30 -24 -122 -114 -155
-144 -197 -175 -27 -21 -89 -76 -139 -123 -49 -48 -91 -86 -92 -84 -2 1 -22
-17 -45 -40 -23 -23 -42 -40 -42 -38 0 2 -12 -8 -27 -22 -16 -14 -52 -39 -81
-55 -29 -17 -72 -50 -95 -74 -23 -24 -48 -44 -54 -44 -7 0 -13 -4 -13 -9 0 -5
-18 -17 -40 -27 -22 -10 -40 -21 -40 -26 0 -4 -17 -24 -38 -44 -26 -26 -29
-30 -8 -15 16 12 35 21 42 21 8 0 22 9 31 19 9 11 21 17 27 14 6 -3 8 -3 4 2
-7 7 3 16 66 57 35 23 47 33 73 60 14 15 30 25 34 22 5 -3 9 0 9 6 0 6 12 16
28 22 15 7 50 31 77 54 82 68 144 114 155 114 6 0 10 5 10 11 0 5 4 8 8 5 5
-3 27 13 50 34 23 22 46 40 52 40 5 0 10 4 10 8 0 4 24 25 53 47 28 21 56 44
60 52 4 7 14 13 21 13 7 0 24 10 37 23 13 12 47 40 74 62 28 21 61 52 74 67
13 15 30 28 37 28 8 0 22 8 32 17 47 46 81 71 86 66 3 -4 6 1 6 9 0 8 12 24
26 34 14 10 39 31 55 47 16 15 32 27 37 27 4 0 48 38 97 85 49 47 93 85 99 85
5 0 31 21 57 47 26 27 74 72 106 102 32 29 81 76 109 104 34 33 56 47 64 42 9
-5 11 -4 6 4 -8 13 51 81 69 81 6 0 19 14 29 30 9 17 21 28 25 25 5 -2 13 7
19 20 7 14 17 25 24 25 7 1 27 19 43 40 17 21 35 39 41 40 7 0 19 11 28 25 9
14 58 66 109 118 50 51 116 120 146 154 29 35 61 65 70 68 9 3 25 20 35 39 10
18 60 78 112 132 51 55 94 104 94 109 0 6 32 44 71 85 39 41 86 98 104 125 18
28 50 68 70 90 21 22 49 56 64 75 14 19 32 41 39 48 6 7 12 17 12 22 0 5 10
20 23 34 12 13 31 37 42 52 11 15 46 61 78 103 31 41 57 78 57 82 0 7 128 183
154 211 9 10 16 23 16 29 0 6 42 75 93 153 50 77 101 159 112 181 17 35 71
121 85 135 6 6 28 44 52 90 10 19 22 42 27 50 5 8 21 43 37 77 16 34 33 59 38
56 5 -3 6 -1 2 5 -4 6 21 59 54 119 34 59 73 134 87 168 14 33 39 87 55 120
83 167 80 151 80 434 0 141 -2 297 -6 346 -3 50 -8 142 -12 205 -3 63 -7 126
-9 140 -2 14 -6 57 -10 95 -14 170 -17 207 -30 325 -16 147 -23 213 -30 295
-3 33 -7 73 -10 90 -5 34 -11 94 -21 210 -3 44 -9 116 -14 160 -4 44 -8 208
-10 365 -1 157 -3 299 -4 315 -1 17 -19 65 -39 107 -20 43 -37 84 -37 92 0 9
-9 20 -20 26 -11 6 -20 17 -20 26 0 8 -9 32 -20 53 -10 21 -16 42 -12 46 4 3
1 5 -7 3 -8 -2 -18 10 -24 27 -5 17 -21 47 -34 67 -12 21 -23 42 -23 47 0 5
-3 11 -7 13 -12 5 -97 135 -133 203 -18 32 -38 64 -45 70 -7 5 -63 86 -125
179 -61 93 -126 186 -143 207 -18 20 -41 55 -52 76 -11 21 -24 43 -30 49 -5 6
-22 26 -37 45 -14 19 -36 45 -47 58 -12 13 -21 27 -21 30 0 3 -11 19 -25 35
-14 16 -25 35 -25 42 0 7 -4 14 -8 16 -4 2 -37 41 -71 88 -35 47 -69 90 -76
95 -6 6 -20 24 -30 40 -31 49 -108 149 -121 157 -7 5 -32 38 -57 75 -25 38
-64 88 -87 113 -24 25 -63 74 -88 109 -25 35 -55 74 -66 85 -38 39 -103 114
-152 177 -27 34 -61 74 -76 91 -16 16 -28 31 -28 34 0 3 -16 20 -35 38 -19 19
-35 37 -35 41 0 4 -14 21 -30 37 -17 15 -30 31 -30 34 0 3 -27 33 -60 65 -33
32 -60 61 -60 64 0 3 -33 37 -72 76 -40 38 -97 93 -127 122 -29 28 -56 52 -60
52 -3 0 -23 11 -45 24 -56 35 -107 32 -200 -12 -42 -20 -76 -41 -76 -47 0 -5
-7 -10 -15 -10 -7 0 -19 -8 -24 -17 -6 -10 -11 -15 -11 -11 0 10 -50 -41 -50
-51 0 -5 -7 -14 -15 -21 -32 -26 -42 -65 -40 -161 1 -85 5 -105 42 -199 23
-58 60 -143 82 -189 23 -47 41 -91 41 -98 0 -7 41 -94 90 -192 50 -99 90 -183
90 -186 0 -11 114 -239 123 -246 4 -3 29 -54 55 -115 27 -60 76 -163 111 -229
35 -66 71 -141 81 -166 10 -25 57 -124 103 -220 47 -96 88 -185 92 -198 4 -13
32 -76 62 -140 30 -64 66 -143 80 -176 14 -33 29 -65 33 -70 5 -6 10 -22 12
-35 2 -14 14 -47 27 -75 35 -78 151 -370 151 -381 0 -6 27 -92 61 -193 33
-101 58 -185 56 -187 -2 -2 -12 4 -23 14 -90 81 -161 125 -217 138 -18 3 -37
10 -43 15 -18 15 -152 39 -214 39 -68 0 -149 -16 -188 -36 -15 -8 -34 -14 -42
-14 -25 0 -111 -62 -177 -128 -35 -34 -67 -62 -73 -62 -5 0 -10 -4 -10 -8 0
-4 -7 -17 -15 -27 -44 -56 -160 -245 -189 -308 -109 -231 -212 -526 -231 -660
-3 -27 -12 -66 -20 -86 -7 -21 -16 -57 -19 -82 -10 -75 -81 -275 -109 -308 -7
-9 -22 -37 -31 -64 -10 -26 -24 -54 -32 -61 -8 -8 -14 -18 -14 -23 0 -7 -12
-23 -73 -94 -12 -14 -35 -45 -52 -69 -16 -25 -59 -74 -95 -111 -36 -37 -81
-84 -101 -105 -51 -56 -112 -109 -121 -106 -5 1 -7 -4 -6 -10 2 -7 -5 -12 -14
-12 -10 1 -16 -2 -13 -5 5 -9 -80 -101 -92 -101 -5 0 -49 -40 -98 -88 -50 -48
-108 -101 -130 -117 -22 -17 -49 -41 -60 -55 -38 -46 -89 -100 -97 -100 -10 0
-89 -79 -115 -116 -12 -17 -45 -42 -73 -55 -27 -13 -53 -32 -56 -42 -3 -9 -9
-15 -14 -12 -5 3 -13 -3 -19 -12 -5 -10 -11 -16 -13 -15 -4 5 -61 -20 -68 -29
-19 -23 -170 -136 -175 -131 -4 4 -5 2 -3 -3 1 -6 -41 -52 -94 -103 -53 -50
-95 -92 -92 -92 3 0 -14 -20 -38 -44 -58 -60 -87 -93 -122 -141 -16 -22 -32
-42 -35 -45 -18 -15 -110 -131 -135 -169 -15 -24 -57 -82 -93 -130 -36 -47
-70 -97 -77 -111 -6 -14 -53 -87 -103 -163 -51 -76 -93 -143 -93 -149 0 -6
-20 -43 -44 -82 -62 -102 -115 -198 -163 -300 -60 -128 -64 -130 -98 -59 -94
196 -140 283 -182 344 -16 24 -44 74 -62 112 -18 37 -37 67 -42 67 -6 0 -7 5
-4 10 3 6 2 10 -3 10 -5 0 -17 17 -28 37 -10 21 -21 40 -24 43 -15 14 -78 109
-92 140 -9 19 -38 62 -65 95 -75 94 -100 128 -107 150 -3 11 -25 41 -49 66
-56 62 -77 87 -111 134 -16 22 -37 48 -48 58 -10 10 -16 23 -12 28 3 5 2 8 -3
7 -4 -2 -83 72 -175 165 -91 92 -171 167 -177 167 -7 0 -14 7 -17 15 -4 8 -11
15 -18 15 -10 0 -30 17 -131 106 -21 20 -57 45 -80 56 -22 11 -43 26 -47 32
-4 6 -8 8 -8 3 0 -4 -24 16 -52 45 -29 29 -62 59 -73 66 -11 7 -13 10 -5 7 8
-4 4 2 -10 13 -13 11 -27 19 -30 17 -3 -2 -15 10 -25 26 -11 16 -26 29 -32 29
-7 0 -13 6 -13 13 0 8 -26 36 -57 63 -32 27 -90 81 -130 120 -40 39 -73 69
-73 67 0 -2 -11 7 -25 19 -58 52 -65 58 -72 58 -5 0 -8 4 -8 9 0 14 -158 161
-167 155 -4 -3 -8 -2 -8 3 0 14 -97 122 -104 116 -3 -4 -6 -1 -6 6 0 7 -19 32
-42 55 -24 23 -65 73 -93 111 -27 38 -56 74 -63 82 -24 24 -82 126 -82 145 0
10 -5 18 -11 18 -5 0 -7 5 -4 10 3 6 2 10 -3 10 -17 0 -103 233 -116 312 -3
20 -15 71 -27 113 -11 42 -18 79 -16 82 3 3 -1 22 -8 44 -8 22 -14 41 -15 44
0 3 0 6 -1 8 0 1 -2 9 -4 17 -5 27 -94 289 -104 307 -6 10 -21 50 -36 88 -33
91 -107 234 -162 313 -24 34 -41 62 -38 62 10 0 -17 30 -115 130 -98 100 -152
141 -211 158 -19 6 -54 18 -78 27 -53 19 -154 26 -234 15 -78 -11 -224 -58
-267 -87 -59 -39 -84 -57 -110 -80 -13 -12 -25 -21 -26 -20 -1 1 18 63 43 137
24 74 46 140 47 145 2 6 6 17 9 25 3 8 13 42 22 75 9 32 28 81 41 107 13 26
24 49 23 50 -1 6 14 44 48 123 19 44 43 105 52 135 19 57 41 107 98 224 19 38
61 131 93 206 32 76 74 166 92 201 19 35 49 98 67 139 31 70 119 252 315 650
44 91 86 168 91 172 6 4 7 8 3 8 -7 0 23 67 69 155 11 22 21 42 20 45 0 3 11
23 24 45 14 22 32 58 41 80 21 52 62 149 108 255 51 117 53 122 57 149 2 14 9
33 14 44 6 10 10 44 9 75 -1 80 -3 94 -20 122 -8 14 -29 52 -46 85 -35 66 -85
110 -173 151 -84 39 -135 41 -200 7z"/>
<path d="M5146 8713 c-4 -5 -12 -9 -17 -9 -5 -1 -10 -3 -11 -4 -2 -1 -19 -4
-38 -5 -43 -4 -72 -9 -130 -25 -25 -7 -49 -13 -55 -15 -5 -1 -22 -7 -36 -13
-14 -5 -36 -12 -50 -14 -13 -1 -27 -6 -30 -10 -3 -5 -17 -9 -33 -10 -15 -1
-34 -10 -43 -20 -9 -10 -21 -18 -27 -18 -17 0 -82 -35 -121 -65 -19 -14 -35
-22 -35 -18 0 4 -4 3 -8 -3 -4 -5 -25 -21 -47 -34 -22 -13 -49 -32 -59 -42
-10 -9 -23 -15 -28 -12 -4 3 -8 0 -8 -6 0 -15 -137 -150 -144 -142 -3 3 -6 0
-6 -7 0 -19 -36 -62 -45 -53 -3 4 -6 2 -4 -3 4 -18 -18 -60 -50 -94 -17 -18
-31 -37 -31 -41 0 -5 -3 -10 -7 -12 -11 -5 -103 -192 -103 -210 0 -8 -3 -18
-7 -22 -5 -4 -8 -11 -9 -14 -4 -32 -18 -83 -24 -87 -5 -3 -11 -24 -15 -48 -4
-23 -10 -46 -13 -51 -3 -5 -7 -21 -8 -35 -2 -14 -8 -53 -13 -86 -12 -73 -7
-387 8 -435 5 -19 12 -48 15 -65 2 -16 14 -59 24 -95 50 -164 84 -240 151
-339 23 -33 41 -65 41 -70 0 -6 4 -11 9 -11 5 0 14 -14 21 -31 7 -17 23 -37
36 -46 13 -8 26 -24 30 -35 3 -11 8 -18 10 -15 7 7 124 -115 118 -124 -3 -5 3
-9 13 -9 10 -1 42 -23 72 -50 30 -28 58 -50 63 -50 4 0 8 -7 8 -17 0 -9 3 -13
7 -10 3 4 16 -7 28 -23 12 -16 24 -27 27 -25 3 3 19 -8 37 -24 17 -16 36 -31
41 -33 5 -2 39 -33 77 -69 37 -36 78 -71 91 -78 37 -20 102 -84 95 -94 -3 -6
-2 -7 3 -4 6 3 32 -14 58 -39 27 -24 53 -44 58 -44 6 0 37 -27 70 -60 32 -33
63 -60 68 -60 4 0 10 -4 12 -8 2 -5 24 -25 50 -44 26 -20 44 -39 41 -42 -4 -3
-1 -6 6 -6 6 0 26 -15 44 -33 18 -19 42 -39 55 -46 12 -7 20 -17 16 -23 -4 -6
-3 -8 3 -5 5 3 23 -6 39 -21 17 -15 45 -40 64 -56 102 -84 159 -140 153 -149
-3 -6 -1 -7 5 -3 7 4 23 -4 37 -18 14 -14 28 -25 31 -25 11 0 64 -50 64 -62 0
-7 3 -10 6 -7 3 4 25 -12 49 -34 24 -22 45 -39 47 -37 3 4 64 -50 142 -126 28
-27 62 -56 76 -63 14 -7 66 -51 114 -98 49 -46 93 -84 98 -84 5 0 34 -24 65
-54 30 -30 60 -57 67 -60 6 -3 21 -13 32 -21 20 -15 23 -14 55 15 143 131 154
140 168 140 6 0 15 9 21 20 6 11 17 20 26 20 8 0 18 10 23 23 9 23 162 147
181 147 6 0 10 6 10 13 0 11 93 99 104 98 3 0 20 13 37 29 18 16 37 26 42 23
6 -3 7 -1 4 4 -5 9 75 93 89 93 2 0 21 16 41 35 20 19 38 33 41 31 2 -2 25 17
52 42 88 84 120 112 131 112 6 0 7 5 4 10 -3 6 -2 10 2 10 5 0 32 21 61 46 28
25 52 43 52 39 0 -3 14 10 31 30 18 20 34 33 37 30 3 -3 10 5 16 16 6 12 15
21 19 20 4 -1 14 4 21 11 7 7 37 34 67 60 30 25 64 55 76 66 13 10 20 22 16
26 -3 3 0 6 7 6 7 0 18 7 24 14 6 8 18 16 26 18 8 2 29 18 47 37 18 19 33 30
33 25 0 -5 8 3 18 19 10 15 21 25 24 22 3 -3 11 2 19 12 12 15 12 16 -1 9 -8
-4 -6 0 5 8 11 9 28 23 38 31 9 8 17 12 17 10 0 -3 10 4 23 15 12 12 34 29 50
38 15 9 29 23 32 32 6 18 154 136 167 133 4 -2 8 3 8 10 0 7 21 31 46 53 26
21 63 54 83 71 20 18 39 33 42 33 11 0 119 111 119 121 0 6 5 7 10 4 6 -3 10
1 10 9 0 9 7 16 15 16 8 0 14 3 13 8 -2 4 8 18 20 32 40 44 159 234 185 295
13 33 32 85 42 115 10 30 22 60 26 66 5 6 6 13 4 16 -3 3 -1 18 5 33 33 86 44
184 44 375 0 120 -4 210 -12 235 -6 22 -14 57 -17 78 -4 22 -22 85 -40 140
-18 56 -35 111 -37 122 -2 10 -11 27 -21 37 -10 10 -15 23 -12 28 3 4 1 10 -3
12 -5 1 -22 28 -40 58 -17 31 -41 67 -52 80 -12 14 -29 37 -38 53 -9 15 -20
27 -24 27 -4 0 -8 6 -8 13 0 7 -9 18 -20 25 -11 7 -20 17 -20 23 0 14 -26 39
-40 39 -6 0 -9 4 -5 9 3 5 -4 12 -15 16 -12 4 -46 31 -78 61 -31 30 -61 54
-65 54 -5 0 -5 5 -1 12 4 6 3 8 -4 4 -6 -3 -17 1 -25 9 -9 8 -19 15 -24 15 -5
0 -19 7 -31 16 -19 13 -21 18 -10 32 11 13 10 14 -8 4 -17 -9 -25 -8 -41 8
-12 10 -24 16 -27 13 -3 -4 -6 -1 -6 6 0 7 -4 10 -10 6 -5 -3 -18 3 -29 14
-11 11 -21 17 -24 15 -3 -3 -36 11 -75 29 -39 19 -73 32 -76 29 -3 -3 -6 0 -6
7 0 7 -4 10 -9 7 -5 -4 -11 -2 -13 3 -1 5 -16 12 -33 15 -16 3 -73 15 -125 27
-71 16 -137 22 -261 24 -174 2 -268 -10 -469 -65 -41 -11 -80 -21 -86 -23 -6
-1 -23 -11 -37 -20 -15 -10 -27 -14 -27 -10 0 5 -4 3 -8 -2 -7 -11 -64 -38
-71 -35 -2 1 -7 -3 -10 -8 -3 -6 -13 -12 -21 -14 -8 -2 -22 -10 -30 -18 -8 -9
-42 -31 -74 -50 -33 -19 -94 -69 -136 -111 -41 -42 -80 -78 -85 -80 -15 -6
-95 -105 -95 -117 0 -5 -7 -13 -16 -16 -9 -4 -14 -9 -11 -12 3 -4 0 -13 -8
-21 -8 -8 -21 -23 -29 -35 -14 -20 -15 -20 -48 17 -29 33 -47 60 -74 114 -4 8
-25 30 -47 50 -76 69 -135 130 -129 135 3 4 -2 6 -12 6 -9 0 -14 5 -11 10 4 6
3 9 -2 8 -4 -2 -29 12 -55 30 -26 17 -51 32 -57 32 -6 0 -11 5 -11 10 0 6 -5
10 -10 10 -12 0 -73 41 -78 53 -2 4 -9 7 -15 7 -16 0 -141 63 -145 73 -2 4 -8
4 -13 1 -6 -3 -15 -1 -22 5 -7 5 -28 13 -47 16 -19 3 -62 12 -95 20 -33 8 -78
17 -99 21 -22 3 -49 9 -60 13 -12 4 -91 7 -178 7 -86 -1 -154 2 -151 7 2 4 2
7 0 7 -2 0 -7 -3 -11 -7z"/>
<path d="M4777 799 c7 -7 15 -10 18 -7 3 3 -2 9 -12 12 -14 6 -15 5 -6 -5z"/>
</g>
</svg>
